<?xml version="1.0" encoding="UTF-8" standalone="no"?>
<!DOCTYPE svg PUBLIC "-//W3C//DTD SVG 1.1//EN"
 "http://www.w3.org/Graphics/SVG/1.1/DTD/svg11.dtd">
<!-- Generated by graphviz version 2.40.1 (20161225.0304)
 -->
<!-- Title: dependencies Pages: 1 -->
<svg width="850pt" height="284pt"
 viewBox="0.00 0.00 850.00 284.00" xmlns="http://www.w3.org/2000/svg" xmlns:xlink="http://www.w3.org/1999/xlink">
<g id="graph0" class="graph" transform="scale(1 1) rotate(0) translate(4 280)">
<title>dependencies</title>
<polygon fill="#ffffff" stroke="transparent" points="-4,4 -4,-280 846,-280 846,4 -4,4"/>
<text text-anchor="start" x="400.0091" y="-42.4" font-family="sans-serif" font-weight="bold" font-size="14.00" fill="#000000">Legend</text>
<polygon fill="#ffffb3" stroke="transparent" points="187,-10 187,-30 207,-30 207,-10 187,-10"/>
<text text-anchor="start" x="210.629" y="-15.4" font-family="sans-serif" font-size="14.00" fill="#000000"> &#160;Declarations</text>
<polygon fill="#8dd3c7" stroke="transparent" points="300,-10 300,-30 320,-30 320,-10 300,-10"/>
<text text-anchor="start" x="323.7251" y="-15.4" font-family="sans-serif" font-size="14.00" fill="#000000"> &#160;Module</text>
<polygon fill="#80b1d3" stroke="transparent" points="386,-10 386,-30 406,-30 406,-10 386,-10"/>
<text text-anchor="start" x="409.7812" y="-15.4" font-family="sans-serif" font-size="14.00" fill="#000000"> &#160;Bootstrap</text>
<polygon fill="#fdb462" stroke="transparent" points="483,-10 483,-30 503,-30 503,-10 483,-10"/>
<text text-anchor="start" x="506.6732" y="-15.4" font-family="sans-serif" font-size="14.00" fill="#000000"> &#160;Providers</text>
<polygon fill="#fb8072" stroke="transparent" points="579,-10 579,-30 599,-30 599,-10 579,-10"/>
<text text-anchor="start" x="602.7258" y="-15.4" font-family="sans-serif" font-size="14.00" fill="#000000"> &#160;Exports</text>
<g id="clust1" class="cluster">
<title>cluster_AppModule</title>
<polygon fill="none" stroke="#000000" stroke-dasharray="1,5" points="8,-70 8,-268 834,-268 834,-70 8,-70"/>
</g>
<g id="clust2" class="cluster">
<title>cluster_AppModule_declarations</title>
<polygon fill="none" stroke="#000000" points="164,-78 164,-130 826,-130 826,-78 164,-78"/>
</g>
<g id="clust10" class="cluster">
<title>cluster_AppModule_bootstrap</title>
<polygon fill="none" stroke="#000000" points="371,-208 371,-260 495,-260 495,-208 371,-208"/>
</g>
<g id="clust11" class="cluster">
<title>cluster_AppModule_providers</title>
<polygon fill="none" stroke="#000000" points="16,-78 16,-130 156,-130 156,-78 16,-78"/>
</g>
<!-- AppComponent -->
<g id="node1" class="node">
<title>AppComponent</title>
<polygon fill="#ffffb3" stroke="#000000" points="817.9399,-122 712.0601,-122 712.0601,-86 817.9399,-86 817.9399,-122"/>
<text text-anchor="middle" x="765" y="-99.8" font-family="Times,serif" font-size="14.00" fill="#000000">AppComponent</text>
</g>
<!-- AppModule -->
<g id="node6" class="node">
<title>AppModule</title>
<polygon fill="#8dd3c7" stroke="#000000" points="474.6571,-187 471.6571,-191 450.6571,-191 447.6571,-187 391.3429,-187 391.3429,-151 474.6571,-151 474.6571,-187"/>
<text text-anchor="middle" x="433" y="-164.8" font-family="Times,serif" font-size="14.00" fill="#000000">AppModule</text>
</g>
<!-- AppComponent&#45;&gt;AppModule -->
<g id="edge1" class="edge">
<title>AppComponent&#45;&gt;AppModule</title>
<path fill="none" stroke="#000000" d="M765,-122.2843C765,-143.3211 765,-175 765,-175 765,-175 484.7119,-175 484.7119,-175"/>
<polygon fill="#000000" stroke="#000000" points="484.7119,-171.5001 474.7119,-175 484.7118,-178.5001 484.7119,-171.5001"/>
</g>
<!-- AvatarComponent -->
<g id="node2" class="node">
<title>AvatarComponent</title>
<polygon fill="#ffffb3" stroke="#000000" points="694.9201,-122 575.0799,-122 575.0799,-86 694.9201,-86 694.9201,-122"/>
<text text-anchor="middle" x="635" y="-99.8" font-family="Times,serif" font-size="14.00" fill="#000000">AvatarComponent</text>
</g>
<!-- AvatarComponent&#45;&gt;AppModule -->
<g id="edge2" class="edge">
<title>AvatarComponent&#45;&gt;AppModule</title>
<path fill="none" stroke="#000000" d="M635,-122.0225C635,-139.3734 635,-163 635,-163 635,-163 484.8545,-163 484.8545,-163"/>
<polygon fill="#000000" stroke="#000000" points="484.8546,-159.5001 474.8545,-163 484.8545,-166.5001 484.8546,-159.5001"/>
</g>
<!-- ChatComponent -->
<g id="node3" class="node">
<title>ChatComponent</title>
<polygon fill="#ffffb3" stroke="#000000" points="556.7744,-122 449.2256,-122 449.2256,-86 556.7744,-86 556.7744,-122"/>
<text text-anchor="middle" x="503" y="-99.8" font-family="Times,serif" font-size="14.00" fill="#000000">ChatComponent</text>
</g>
<!-- ChatComponent&#45;&gt;AppModule -->
<g id="edge3" class="edge">
<title>ChatComponent&#45;&gt;AppModule</title>
<path fill="none" stroke="#000000" d="M461.9706,-122.1061C461.9706,-122.1061 461.9706,-140.991 461.9706,-140.991"/>
<polygon fill="#000000" stroke="#000000" points="458.4706,-140.9909 461.9706,-150.991 465.4706,-140.991 458.4706,-140.9909"/>
</g>
<!-- NotfoundComponent -->
<g id="node4" class="node">
<title>NotfoundComponent</title>
<polygon fill="#ffffb3" stroke="#000000" points="431.4902,-122 296.5098,-122 296.5098,-86 431.4902,-86 431.4902,-122"/>
<text text-anchor="middle" x="364" y="-99.8" font-family="Times,serif" font-size="14.00" fill="#000000">NotfoundComponent</text>
</g>
<!-- NotfoundComponent&#45;&gt;AppModule -->
<g id="edge4" class="edge">
<title>NotfoundComponent&#45;&gt;AppModule</title>
<path fill="none" stroke="#000000" d="M411.3334,-122.1061C411.3334,-122.1061 411.3334,-140.991 411.3334,-140.991"/>
<polygon fill="#000000" stroke="#000000" points="407.8335,-140.9909 411.3334,-150.991 414.8335,-140.991 407.8335,-140.9909"/>
</g>
<!-- TextComponent -->
<g id="node5" class="node">
<title>TextComponent</title>
<polygon fill="#ffffb3" stroke="#000000" points="278.4902,-122 171.5098,-122 171.5098,-86 278.4902,-86 278.4902,-122"/>
<text text-anchor="middle" x="225" y="-99.8" font-family="Times,serif" font-size="14.00" fill="#000000">TextComponent</text>
</g>
<!-- TextComponent&#45;&gt;AppModule -->
<g id="edge5" class="edge">
<title>TextComponent&#45;&gt;AppModule</title>
<path fill="none" stroke="#000000" d="M225,-122.0225C225,-139.3734 225,-163 225,-163 225,-163 380.9081,-163 380.9081,-163"/>
<polygon fill="#000000" stroke="#000000" points="380.9081,-166.5001 390.9081,-163 380.9081,-159.5001 380.9081,-166.5001"/>
</g>
<!-- AppComponent  -->
<g id="node7" class="node">
<title>AppComponent </title>
<polygon fill="#80b1d3" stroke="#000000" points="487.439,-252 378.561,-252 378.561,-216 487.439,-216 487.439,-252"/>
<text text-anchor="middle" x="433" y="-229.8" font-family="Times,serif" font-size="14.00" fill="#000000">AppComponent </text>
</g>
<!-- AppModule&#45;&gt;AppComponent  -->
<g id="edge6" class="edge">
<title>AppModule&#45;&gt;AppComponent </title>
<path fill="none" stroke="#000000" stroke-dasharray="1,5" d="M433,-187.1061C433,-187.1061 433,-205.991 433,-205.991"/>
<polygon fill="#000000" stroke="#000000" points="429.5001,-205.9909 433,-215.991 436.5001,-205.991 429.5001,-205.9909"/>
</g>
<!-- UsersService -->
<g id="node8" class="node">
<title>UsersService</title>
<ellipse fill="#fdb462" stroke="#000000" cx="86" cy="-104" rx="61.9519" ry="18"/>
<text text-anchor="middle" x="86" y="-99.8" font-family="Times,serif" font-size="14.00" fill="#000000">UsersService</text>
</g>
<!-- UsersService&#45;&gt;AppModule -->
<g id="edge7" class="edge">
<title>UsersService&#45;&gt;AppModule</title>
<path fill="none" stroke="#000000" d="M86,-122.2843C86,-143.3211 86,-175 86,-175 86,-175 381.1437,-175 381.1437,-175"/>
<polygon fill="#000000" stroke="#000000" points="381.1437,-178.5001 391.1437,-175 381.1437,-171.5001 381.1437,-178.5001"/>
</g>
</g>
</svg>
